<?xml version="1.0" encoding="UTF-8"?>
<svg id="Lag_1" data-name="Lag 1" xmlns="http://www.w3.org/2000/svg" width="1125" height="907" viewBox="0 0 1125 907">
  <defs>
    <style>
      .cls-1 {
        fill: none;
        stroke: #f4f3ef;
        stroke-width: 99.33px;
      }
    </style>
  </defs>
  <path class="cls-1" d="M211.43,585.96c10.51,87.79,47.98,147.94,122.78,201.96s170.34,77.95,265.61,66.54c95.27-11.41,182.46-57.22,242.39-127.37,59.93-70.15,87.69-158.88,77.18-246.67"/>
  <path class="cls-1" d="M1084.64,637.4l-193.77-225.69"/>
  <path class="cls-1" d="M959.69,426.28l-224.95,146.82"/>
  <path class="cls-1" d="M913.4,320.95c-10.51-87.79-47.98-147.94-122.77-201.96-74.8-54.01-170.34-77.95-265.61-66.54-95.27,11.41-182.46,57.22-242.39,127.37-59.93,70.15-87.69,158.88-77.18,246.67"/>
  <path class="cls-1" d="M40.19,269.51l193.77,225.69"/>
  <path class="cls-1" d="M165.13,480.63l224.94-146.82"/>
</svg>